<?xml version="1.0" encoding="UTF-8"?>
<svg width="57px" height="40px" viewBox="0 0 57 40" version="1.1" xmlns="http://www.w3.org/2000/svg" xmlns:xlink="http://www.w3.org/1999/xlink">
    <title>Artboard</title>
    <g id="Artboard" stroke="none" stroke-width="1" fill="none" fill-rule="evenodd">
        <g id="GrowthCloud-Logo" transform="translate(-0.000000, 0.000000)">
            <g id="Group" transform="translate(-0.000000, 0.000000)">
                <path d="M20,11.4285714 C20,5.11674572 25.1167457,0 31.4285714,0 L31.723548,0.00373265652 C37.8990462,0.160190071 42.8571429,5.21536799 42.8571429,11.4285714 C42.8571429,17.7403971 37.7403971,22.8571429 31.4285714,22.8571429 C25.1167457,22.8571429 20,17.7403971 20,11.4285714 Z" id="Combined-Shape" fill="#43DB7B"></path>
                <path d="M18.5714286,2.85714286 C19.0391659,2.85714286 19.5028645,2.87443443 19.9619201,2.9084132 C18.5812051,4.76224148 17.6408176,6.96117963 17.2926638,9.35217195 C11.1876258,9.99099949 6.42857143,15.1540171 6.42857143,21.4285714 C6.42857143,28.1348862 11.8651138,33.5714286 18.5714286,33.5714286 C21.5745931,33.5714286 24.3231237,32.4812111 26.4428365,30.6749599 C27.0853478,32.8039904 28.1315603,34.7594863 29.4923735,36.4511967 C26.4280269,38.6829607 22.6535332,40 18.5714286,40 C8.31471179,40 0,31.6852882 0,21.4285714 C0,11.1718546 8.31471179,2.85714286 18.5714286,2.85714286 Z M42.8571429,11.4285714 C50.746925,11.4285714 57.1428571,17.8245036 57.1428571,25.7142857 C57.1428571,33.6040679 50.746925,40 42.8571429,40 C34.9673607,40 28.5714286,33.6040679 28.5714286,25.7142857 C28.5714286,17.8245036 34.9673607,11.4285714 42.8571429,11.4285714 Z" id="Combined-Shape" fill="#26B058"></path>
            </g>
            <path d="M43.1444992,36 C44.8303229,36 46.3437329,35.6829837 47.6847291,35.048951 C49.0257252,34.4149184 50.1320471,33.5850816 51.0036946,32.5594406 C51.7212643,31.7150982 52.2668089,30.8138848 52.6403284,29.8558002 C52.7205312,29.6500786 52.7928027,29.441735 52.8571429,29.2307692 C52.8987587,29.0943145 52.8999983,27.6947315 52.8608615,25.0320202 C52.8602247,24.8939505 52.7477614,24.7825587 52.6096918,24.7832196 C52.6095325,24.7832204 52.6093732,24.7832213 52.6092138,24.7832168 L42.4174877,24.7832168 C42.2794165,24.7832168 42.1674877,24.8951456 42.1674877,25.0332168 L42.1674877,28.0576923 C42.1674877,28.1957635 42.2794165,28.3076923 42.4174877,28.3076923 L48.260017,28.3076923 C48.3152435,28.308159 48.3596379,28.3533044 48.3591748,28.408531 C48.3590827,28.4195112 48.3571828,28.4304012 48.3524827,28.4403894 C48.2414331,28.7284276 48.1507362,28.9430415 48.0803919,29.0842312 C47.7079064,29.8318558 47.2072448,30.4308184 46.5784072,30.8811189 C45.7450739,31.4778555 44.7249589,31.7762238 43.5180624,31.7762238 C41.7556103,31.7762238 40.3715107,31.2680653 39.3657635,30.2517483 C38.3600164,29.2354312 37.8571429,27.8228438 37.8571429,26.013986 C37.8571429,24.3170163 38.3360701,22.960373 39.2939245,21.9440559 C40.2517789,20.9277389 41.5257252,20.4195804 43.1157635,20.4195804 C44.0353038,20.4195804 44.8351122,20.5920746 45.5151888,20.9370629 C46.1952655,21.2820513 46.7172961,21.7808858 47.0812808,22.4335664 L52.1755275,22.4335664 C52.313598,22.4331411 52.4251824,22.3208689 52.4247583,22.1827984 C52.4246795,22.157175 52.4206621,22.1317161 52.413573,22.107081 C52.3216875,21.8103158 52.2439986,21.5812036 52.1805064,21.4197443 C51.5762906,19.883236 50.5901502,18.6454192 49.2220854,17.7062937 C47.5649973,16.5687646 45.5295567,16 43.1157635,16 C41.1234264,16 39.3513957,16.4242424 37.7996716,17.2727273 C36.2479475,18.1212121 35.0362616,19.3053613 34.1646141,20.8251748 C33.2929666,22.3449883 32.8571429,24.0745921 32.8571429,26.013986 C32.8571429,27.95338 33.2929666,29.6783217 34.1646141,31.1888112 C35.0362616,32.6993007 36.2527367,33.8787879 37.8140394,34.7272727 C39.3753421,35.5757576 41.152162,36 43.1444992,36 Z" id="G" fill="#FFFFFF" fill-rule="nonzero"></path>
        </g>
    </g>
</svg>