<?xml version="1.0" encoding="UTF-8"?>
<svg width="106px" height="14px" viewBox="0 0 106 14" version="1.1" xmlns="http://www.w3.org/2000/svg" xmlns:xlink="http://www.w3.org/1999/xlink">
    <title>growthcloud_wordmark_colored</title>
    <g id="growthcloud_wordmark_colored" stroke="none" stroke-width="1" fill="none" fill-rule="evenodd">
        <path d="M29.325,12.365 C31.14,12.365 32.565,11.615 33.585,10.475 L33.585,6.635 L28.815,6.635 L28.815,8.495 L31.455,8.495 L31.455,9.695 C31.05,10.07 30.21,10.46 29.325,10.46 C27.51,10.46 26.19,9.065 26.19,7.175 C26.19,5.285 27.51,3.89 29.325,3.89 C30.39,3.89 31.245,4.49 31.695,5.195 L33.465,4.235 C32.715,3.05 31.41,2 29.325,2 C26.4,2 24,4.01 24,7.175 C24,10.325 26.4,12.365 29.325,12.365 Z M36.44,12.17 L36.44,7.385 C36.755,6.92 37.595,6.56 38.225,6.56 C38.435,6.56 38.615,6.575 38.75,6.605 L38.75,4.745 C37.85,4.745 36.95,5.27 36.44,5.915 L36.44,4.925 L34.535,4.925 L34.535,12.17 L36.44,12.17 Z M42.595,12.35 C44.995,12.35 46.435,10.61 46.435,8.54 C46.435,6.485 44.995,4.745 42.595,4.745 C40.21,4.745 38.77,6.485 38.77,8.54 C38.77,10.61 40.21,12.35 42.595,12.35 Z M42.595,10.655 C41.41,10.655 40.75,9.68 40.75,8.54 C40.75,7.415 41.41,6.44 42.595,6.44 C43.78,6.44 44.455,7.415 44.455,8.54 C44.455,9.68 43.78,10.655 42.595,10.655 Z M50.445,12.17 L51.975,7.235 L53.505,12.17 L55.53,12.17 L57.735,4.925 L55.755,4.925 L54.405,9.8 L52.815,4.925 L51.12,4.925 L49.53,9.8 L48.18,4.925 L46.2,4.925 L48.405,12.17 L50.445,12.17 Z M60.41,12.35 C61.205,12.35 61.715,12.14 62,11.885 L61.595,10.445 C61.49,10.55 61.22,10.655 60.935,10.655 C60.515,10.655 60.275,10.31 60.275,9.86 L60.275,6.59 L61.745,6.59 L61.745,4.925 L60.275,4.925 L60.275,2.945 L58.355,2.945 L58.355,4.925 L57.155,4.925 L57.155,6.59 L58.355,6.59 L58.355,10.37 C58.355,11.66 59.075,12.35 60.41,12.35 Z M64.255,12.17 L64.255,7.295 C64.585,6.86 65.17,6.44 65.905,6.44 C66.73,6.44 67.255,6.755 67.255,7.76 L67.255,12.17 L69.16,12.17 L69.16,7.025 C69.16,5.615 68.395,4.745 66.805,4.745 C65.62,4.745 64.72,5.315 64.255,5.87 L64.255,2.165 L62.35,2.165 L62.35,12.17 L64.255,12.17 Z M75.24,12.35 C77.445,12.35 78.705,11.135 79.425,9.89 L77.595,9.005 C77.175,9.83 76.275,10.46 75.24,10.46 C73.425,10.46 72.105,9.065 72.105,7.175 C72.105,5.285 73.425,3.89 75.24,3.89 C76.275,3.89 77.175,4.535 77.595,5.345 L79.425,4.445 C78.72,3.2 77.445,2 75.24,2 C72.24,2 69.915,4.1 69.915,7.175 C69.915,10.25 72.24,12.35 75.24,12.35 Z M81.86,12.17 L81.86,2.165 L79.955,2.165 L79.955,12.17 L81.86,12.17 Z M86.41,12.35 C88.81,12.35 90.25,10.61 90.25,8.54 C90.25,6.485 88.81,4.745 86.41,4.745 C84.025,4.745 82.585,6.485 82.585,8.54 C82.585,10.61 84.025,12.35 86.41,12.35 Z M86.41,10.655 C85.225,10.655 84.565,9.68 84.565,8.54 C84.565,7.415 85.225,6.44 86.41,6.44 C87.595,6.44 88.27,7.415 88.27,8.54 C88.27,9.68 87.595,10.655 86.41,10.655 Z M93.3,12.35 C94.485,12.35 95.355,11.81 95.85,11.255 L95.85,12.17 L97.755,12.17 L97.755,4.925 L95.85,4.925 L95.85,9.83 C95.52,10.25 94.935,10.655 94.2,10.655 C93.39,10.655 92.865,10.325 92.865,9.32 L92.865,4.925 L90.96,4.925 L90.96,10.07 C90.96,11.48 91.71,12.35 93.3,12.35 Z M101.69,12.35 C102.56,12.35 103.355,11.96 103.925,11.24 L103.925,12.17 L105.845,12.17 L105.845,2.165 L103.925,2.165 L103.925,5.855 C103.355,5.12 102.545,4.745 101.69,4.745 C99.845,4.745 98.48,6.185 98.48,8.555 C98.48,10.97 99.86,12.35 101.69,12.35 Z M102.275,10.655 C101.195,10.655 100.445,9.8 100.445,8.555 C100.445,7.295 101.195,6.44 102.275,6.44 C102.92,6.44 103.61,6.785 103.925,7.265 L103.925,9.83 C103.61,10.31 102.92,10.655 102.275,10.655 Z" id="GrowthCloud" fill="#0A100C" fill-rule="nonzero"></path>
        <g id="GrowthCloud-Logo" transform="translate(0.000000, -0.004000)">
            <g id="Group">
                <path d="M7,4 C7,1.790861 8.790861,0 11,0 L11.1996403,0.00489530723 C13.3160315,0.108921124 15,1.85780461 15,4 C15,6.209139 13.209139,8 11,8 C8.790861,8 7,6.209139 7,4 Z" id="Combined-Shape" fill="#43DB7B"></path>
                <path d="M6.5,1 C6.6636385,1 6.82586466,1.00604691 6.98646724,1.01792946 C6.50364374,1.66628411 6.17434922,2.436095 6.05244644,3.27316326 C3.91608379,3.49639989 2.25,5.30363259 2.25,7.5 C2.25,9.84721019 4.15278981,11.75 6.5,11.75 C7.55172156,11.75 8.5142171,11.367978 9.25629262,10.7351279 C9.47951974,11.4806317 9.84562454,12.1651454 10.3218611,12.7573349 C9.2491116,13.5392797 7.9283593,14 6.5,14 C2.91014913,14 0,11.0898509 0,7.5 C0,3.91014913 2.91014913,1 6.5,1 Z M15,4 C17.7614237,4 20,6.23857625 20,9 C20,11.7614237 17.7614237,14 15,14 C12.2385763,14 10,11.7614237 10,9 C10,6.23857625 12.2385763,4 15,4 Z" id="Combined-Shape" fill="#26B058"></path>
            </g>
            <path d="M15.1005747,12.6 C15.690613,12.6 16.2203065,12.4890443 16.6896552,12.2671329 C17.1590038,12.0452214 17.5462165,11.7547786 17.8512931,11.3958042 C18.1024425,11.1002844 18.2933831,10.7848597 18.4241149,10.4495301 C18.4521859,10.3775275 18.4774809,10.3046072 18.5,10.2307692 C18.5137079,10.1858223 18.5148993,9.7493111 18.5035742,8.92123573 C18.5020049,8.7849259 18.3915187,8.67500626 18.2552027,8.67412587 L15.0086207,8.67412587 C14.8705495,8.67412587 14.7586207,8.78605469 14.7586207,8.92412587 L14.7586207,9.65769231 C14.7586207,9.7957635 14.8705495,9.90769231 15.0086207,9.90769231 L16.7918996,9.90769231 C16.8471165,9.90656184 16.8928123,9.95038954 16.8939646,10.005606 C16.8942603,10.0197754 16.8915407,10.0338458 16.8865703,10.0471333 C16.8639549,10.1025685 16.8444772,10.1466844 16.8281372,10.1794809 C16.6977672,10.4411495 16.5225357,10.6507864 16.3024425,10.8083916 C16.0107759,11.0172494 15.6537356,11.1216783 15.2313218,11.1216783 C14.6144636,11.1216783 14.1300287,10.9438228 13.7780172,10.5881119 C13.4260057,10.2324009 13.25,9.73799534 13.25,9.1048951 C13.25,8.51095571 13.4176245,8.03613054 13.7528736,7.68041958 C14.0881226,7.32470862 14.5340038,7.14685315 15.0905172,7.14685315 C15.4123563,7.14685315 15.6922893,7.20722611 15.9303161,7.32797203 C16.1683429,7.44871795 16.3510536,7.62331002 16.4784483,7.85174825 L18.0414618,7.85174825 C18.1795174,7.84967538 18.2897758,7.73610069 18.2877304,7.59804465 C18.2873089,7.56960057 18.2820359,7.54143706 18.2703215,7.51544145 C18.2678856,7.50900484 18.2655042,7.50282786 18.2631772,7.4969105 C18.0517017,6.95913261 17.7065526,6.52589671 17.2277299,6.1972028 C16.647749,5.7990676 15.9353448,5.6 15.0905172,5.6 C14.3931992,5.6 13.7729885,5.74848485 13.2298851,6.04545455 C12.6867816,6.34242424 12.2626916,6.75687646 11.9576149,7.28881119 C11.6525383,7.82074592 11.5,8.42610723 11.5,9.1048951 C11.5,9.78368298 11.6525383,10.3874126 11.9576149,10.9160839 C12.2626916,11.4447552 12.6884579,11.8575758 13.2349138,12.1545455 C13.7813697,12.4515152 14.4032567,12.6 15.1005747,12.6 Z" id="G" fill="#FFFFFF" fill-rule="nonzero"></path>
        </g>
    </g>
</svg>